<svg t="1581670759292" class="icon" viewBox="0 0 3072 1024" version="1.1" xmlns="http://www.w3.org/2000/svg" p-id="3939" width="200" height="200"><path d="M1544.45824 189.41952h120.97536v530.92352h76.16512v114.25792h-78.39744c-29.4912-0.88064-118.72256-30.86336-118.72256-112.00512V189.41952z" fill="#38CA83" p-id="3940"></path><path d="M1508.61824 399.99488h232.98048V512H1508.61824z" fill="#F92626" p-id="3941"></path><path d="M1544.45824 399.99488h120.97536V512h-120.97536z" fill="#404531" p-id="3942"></path><path d="M816.7424 833.9456h120.97536V303.02208h76.16512V188.76416h-78.39744c-29.4912 0.88064-118.72256 30.86336-118.72256 112.00512V833.9456z" fill="#F46459" p-id="3943"></path><path d="M2229.12512 517.69344h71.68v304.66048h114.9952V538.60352s4.48512-103.05536-103.05536-135.90528h-83.64032v114.9952z" fill="#38CA83" p-id="3944"></path><path d="M2560.67584 450.47808s-37.33504-41.82016-106.04544-40.32512-153.82528 54.8864-153.82528 116.1216v296.07936h114.9952V555.02848s10.4448-53.76 70.18496-23.90016l74.69056-80.65024z" fill="#09B4E0" p-id="3945"></path><path d="M2802.50368 410.39872c-203.85792-3.35872-200.86784 209.83808-200.86784 209.83808 0 115.36384 107.90912 207.21664 214.30272 203.85792 106.41408-3.35872 160.54272-75.42784 160.54272-75.42784l-70.94272-68.68992s-26.13248 36.59776-97.81248 35.47136c-96.33792-2.23232-108.6464-78.39744-108.6464-97.44384s14.56128-104.16128 107.52-104.16128 113.13152 104.16128 113.13152 104.16128l88.49408-38.0928s-23.1424-166.15424-205.7216-169.51296z" fill="#F8C44E" p-id="3946"></path><path d="M3008.22528 579.93216s-8.76544-51.58912-39.60832-90.80832l-363.88864 164.74112s10.15808 46.96064 36.37248 82.04288l367.12448-155.97568z" fill="#039143" p-id="3947"></path><path d="M1783.21408 399.95392h111.96416v250.04032c1.00352 6.10304 2.02752 11.18208 3.05152 15.23712 4.56704 16.26112 14.09024 29.45024 28.5696 39.60832 14.47936 10.17856 30.08512 15.23712 46.83776 15.23712 20.80768 0 39.2192-7.61856 55.21408-22.85568 15.99488-15.23712 23.98208-33.25952 23.98208-54.08768V399.95392h111.96416v248.5248c0 15.23712-2.29376 30.208-6.8608 44.9536-12.6976 41.63584-35.79904 75.28448-69.30432 100.90496-33.50528 25.64096-71.86432 38.46144-115.01568 38.46144-39.1168 0-75.40736-11.6736-108.91264-35.04128-33.50528-23.3472-56.87296-53.5552-70.08256-90.64448-7.61856-21.31968-11.42784-38.0928-11.42784-50.25792V399.95392z" fill="#D653B0" p-id="3948"></path><path d="M1065.14432 400.85504h111.96416v250.04032c1.00352 6.10304 2.02752 11.18208 3.05152 15.23712 4.56704 16.26112 14.09024 29.45024 28.5696 39.60832 14.47936 10.17856 30.08512 15.23712 46.83776 15.23712 20.80768 0 39.2192-7.61856 55.21408-22.85568 15.99488-15.23712 23.98208-33.25952 23.98208-54.08768V400.85504h111.96416v248.5248c0 15.23712-2.29376 30.208-6.8608 44.9536-12.6976 41.63584-35.79904 75.28448-69.30432 100.90496-33.50528 25.64096-71.86432 38.46144-115.01568 38.46144-39.1168 0-75.40736-11.6736-108.91264-35.04128-33.50528-23.3472-56.87296-53.5552-70.08256-90.64448-7.61856-21.31968-11.42784-38.0928-11.42784-50.25792V400.85504z" fill="#F8C44E" p-id="3949"></path><path d="M1334.82496 399.95392h111.9232v434.62656h-111.9232z" fill="#E84EBC" p-id="3950"></path><path d="M2052.97664 399.95392h111.8208v432.86528l-111.8208 1.76128z" fill="#09B4E0" p-id="3951"></path><path d="M83.10784 595.43552v-12.55424c0-5.95968 0.90112-14.336 2.68288-25.088 0-0.59392 0.45056-3.13344 1.35168-7.61856 0.90112-4.48512 1.35168-7.02464 1.35168-7.61856v-1.78176c0.59392-2.37568 7.31136-24.94464 25.98912-65.41312 0 0 70.94272-119.1936 190.85312-119.17312 56.77056 0 56.75008 1.20832 68.096 3.584 56.13568 11.96032 102.15424 40.18176 137.99424 84.6848s53.76 95.4368 53.76 152.7808c0 65.72032-23.4496 122.1632-70.3488 169.34912-46.8992 47.2064-103.50592 70.79936-169.79968 70.79936-66.90816 0-123.96544-23.59296-171.15136-70.79936-47.18592-47.18592-70.77888-104.2432-70.77888-171.15136z m131.72736 1.3312c0 29.14304 10.752 54.43584 32.256 75.85792 21.504 21.42208 47.18592 32.13312 77.06624 32.13312 29.85984 0 55.56224-10.8544 77.06624-32.5632 21.504-21.7088 32.256-47.45216 32.256-77.18912 0-29.14304-10.752-54.41536-32.256-75.83744-21.504-21.42208-46.8992-32.13312-76.16512-32.13312-32.84992 0-60.35456 12.1856-82.432 36.57728a198.2464 198.2464 0 0 0-11.65312 16.0768c-4.17792 8.92928-8.66304 19.94752-13.43488 33.01376-1.82272 5.91872-2.70336 13.96736-2.70336 24.064z" fill="#D64FB8" p-id="3952"></path><path d="M371.65056 186.63424h-140.67712l-1.80224 3.584-115.77344 284.59008c-16.73216 41.22624-24.33024 63.40608-24.90368 65.78176v1.78176c0 0.59392-0.45056 3.13344-1.35168 7.61856a81.85856 81.85856 0 0 0-1.35168 7.61856c-1.78176 10.752-2.68288 19.12832-2.68288 25.088v12.55424c0 66.90816 23.59296 123.96544 70.79936 171.15136 47.18592 47.2064 104.2432 70.79936 171.15136 70.79936l0.04096-132.44416-6.5536-0.3072c-27.50464-1.26976-51.3024-11.91936-71.45472-31.98976-21.504-21.42208-32.256-46.6944-32.256-75.85792 0-10.11712 0.90112-18.14528 2.68288-24.10496 4.77184-13.06624 9.25696-24.08448 13.43488-33.01376a198.2464 198.2464 0 0 1 11.65312-16.0768l62.73024-167.40352 66.31424-169.3696z" fill="#13B0DD" p-id="3953"></path><path d="M780.9024 399.99488h232.98048V512H780.9024z" fill="#039143" p-id="3954"></path><path d="M325.09952 704.73728c-29.88032 0-56.50432-10.69056-78.00832-32.11264-21.504-21.42208-32.256-46.6944-32.256-75.85792 0-10.11712 0.90112-18.14528 2.68288-24.10496 4.77184-13.06624 9.25696-24.08448 13.43488-33.01376a198.2464 198.2464 0 0 1 11.65312-16.0768c12.32896-31.15008 39.30112-105.08288 62.73024-167.40352-118.9888 0-191.93856 118.62016-191.93856 118.62016-17.22368 40.59136-24.33024 63.5904-24.90368 65.96608v1.78176c0 0.59392-0.45056 3.13344-1.35168 7.61856a81.85856 81.85856 0 0 0-1.35168 7.61856c-1.78176 10.752-2.68288 19.12832-2.68288 25.088v12.55424c0 66.90816 23.59296 123.96544 70.79936 171.15136 47.18592 47.2064 104.2432 70.79936 171.15136 70.79936-0.02048-57.61024 0.04096-113.78688 0.04096-132.62848z" fill="#253EB4" p-id="3955"></path><path d="M2052.93568 399.95392h111.9232v258.31424c-12.14464 117.43232-111.9232 158.6176-111.9232 158.6176V399.95392z" fill="#1D43A8" p-id="3956"></path><path d="M1334.82496 399.95392h111.9232v258.31424c-12.14464 117.43232-111.9232 158.6176-111.9232 158.6176V399.95392z" fill="#D3544B" p-id="3957"></path><path d="M816.7424 399.95392h120.97536v112.00512H816.7424z" fill="#404531" p-id="3958"></path><path d="M2370.41664 436.08064c-39.17824 21.58592-69.61152 55.3984-69.61152 92.01664v296.07936h114.9952V556.8512s8.2944-73.728-45.38368-120.77056z" fill="#059C89" p-id="3959"></path></svg>